# xmcd
#
# Track frame offsets:
#	150
#	11881
#	25003
#	38338
#	51169
#	61836
#	70648
#	80265
#	87387
#	106325
#	116034
#	124451
#
# Disc length: 1759 seconds
#
# Revision: 0
# Processed by: cddbd v1.5.2PL0 Copyright (c) Steve Scherf et al.
# Submitted via: audiograbber 1.83.01
#
DISCID=9406dd0c
DTITLE=Sildawg and the Redneck Ramblers - Redneck Christmas Collection
DYEAR=2011
DGENRE=Country
TTITLE0=Alabama Redneck Starbucks
TTITLE1=Did you heared what I heared
TTITLE2=Jingle Bells
TTITLE3=Blue Camo Christmas
TTITLE4=Christmas in Panama City
TTITLE5=Daddy's On Parole This Christmas
TTITLE6=Granny's Christmas Message
TTITLE7=Deck The Doublewide
TTITLE8=12 Days of a Redneck Christmas
TTITLE9=Egg Nogg Boogie
TTITLE10=Go Tell It On The Mountain
TTITLE11=Yeehaw Ho Ho Ho
EXTD=
EXTT0=
EXTT1=
EXTT2=
EXTT3=
EXTT4=
EXTT5=
EXTT6=
EXTT7=
EXTT8=
EXTT9=
EXTT10=
EXTT11=
PLAYORDER=
